<mxfile host="app.diagrams.net" modified="2024-04-16T06:49:47.515Z" agent="Mozilla/5.0 (Windows NT 10.0; Win64; x64) AppleWebKit/537.36 (KHTML, like Gecko) Chrome/123.0.0.0 Safari/537.36" etag="t4zbgMy_KjMzd2Gmur3f" version="24.2.2" type="github">
  <diagram name="第 1 页" id="btsF6EaHodYpIkdeHeEO">
    <mxGraphModel dx="941" dy="479" grid="1" gridSize="10" guides="1" tooltips="1" connect="1" arrows="1" fold="1" page="1" pageScale="1" pageWidth="827" pageHeight="1169" math="0" shadow="0">
      <root>
        <mxCell id="0" />
        <mxCell id="1" parent="0" />
        <mxCell id="tati8yqmTBazvfmJbsHK-1" value="" style="rounded=1;whiteSpace=wrap;html=1;dashed=1;dashPattern=8 8;" vertex="1" parent="1">
          <mxGeometry x="294" y="310" width="426" height="160" as="geometry" />
        </mxCell>
        <mxCell id="tati8yqmTBazvfmJbsHK-2" value="" style="rounded=0;whiteSpace=wrap;html=1;" vertex="1" parent="1">
          <mxGeometry x="330" y="365" width="50" height="50" as="geometry" />
        </mxCell>
        <mxCell id="tati8yqmTBazvfmJbsHK-3" value="" style="rounded=0;whiteSpace=wrap;html=1;" vertex="1" parent="1">
          <mxGeometry x="380" y="365" width="50" height="50" as="geometry" />
        </mxCell>
        <mxCell id="tati8yqmTBazvfmJbsHK-4" value="" style="rounded=0;whiteSpace=wrap;html=1;" vertex="1" parent="1">
          <mxGeometry x="430" y="365" width="50" height="50" as="geometry" />
        </mxCell>
        <mxCell id="tati8yqmTBazvfmJbsHK-5" value="" style="rounded=0;whiteSpace=wrap;html=1;" vertex="1" parent="1">
          <mxGeometry x="480" y="365" width="50" height="50" as="geometry" />
        </mxCell>
        <mxCell id="tati8yqmTBazvfmJbsHK-6" value="" style="rounded=0;whiteSpace=wrap;html=1;" vertex="1" parent="1">
          <mxGeometry x="530" y="365" width="50" height="50" as="geometry" />
        </mxCell>
        <mxCell id="tati8yqmTBazvfmJbsHK-7" value="" style="rounded=0;whiteSpace=wrap;html=1;" vertex="1" parent="1">
          <mxGeometry x="580" y="365" width="50" height="50" as="geometry" />
        </mxCell>
        <mxCell id="tati8yqmTBazvfmJbsHK-8" value="" style="rounded=0;whiteSpace=wrap;html=1;" vertex="1" parent="1">
          <mxGeometry x="630" y="365" width="50" height="50" as="geometry" />
        </mxCell>
        <mxCell id="tati8yqmTBazvfmJbsHK-9" value="" style="endArrow=classic;html=1;rounded=0;entryX=0;entryY=0.5;entryDx=0;entryDy=0;" edge="1" parent="1" target="tati8yqmTBazvfmJbsHK-2">
          <mxGeometry width="50" height="50" relative="1" as="geometry">
            <mxPoint x="230" y="390" as="sourcePoint" />
            <mxPoint x="240" y="370" as="targetPoint" />
          </mxGeometry>
        </mxCell>
        <mxCell id="tati8yqmTBazvfmJbsHK-10" value="" style="endArrow=classic;html=1;rounded=0;entryX=0;entryY=0.5;entryDx=0;entryDy=0;" edge="1" parent="1">
          <mxGeometry width="50" height="50" relative="1" as="geometry">
            <mxPoint x="680" y="389.71" as="sourcePoint" />
            <mxPoint x="780" y="389.71" as="targetPoint" />
          </mxGeometry>
        </mxCell>
        <mxCell id="tati8yqmTBazvfmJbsHK-14" value="old data" style="text;html=1;align=center;verticalAlign=middle;resizable=0;points=[];autosize=1;strokeColor=none;fillColor=none;" vertex="1" parent="1">
          <mxGeometry x="224" y="360" width="70" height="30" as="geometry" />
        </mxCell>
        <mxCell id="tati8yqmTBazvfmJbsHK-15" value="new data" style="text;html=1;align=center;verticalAlign=middle;resizable=0;points=[];autosize=1;strokeColor=none;fillColor=none;" vertex="1" parent="1">
          <mxGeometry x="720" y="360" width="70" height="30" as="geometry" />
        </mxCell>
        <mxCell id="tati8yqmTBazvfmJbsHK-16" value="&lt;font style=&quot;font-size: 15px;&quot;&gt;Window&lt;/font&gt;" style="text;html=1;align=center;verticalAlign=middle;resizable=0;points=[];autosize=1;strokeColor=none;fillColor=none;" vertex="1" parent="1">
          <mxGeometry x="467" y="320" width="80" height="30" as="geometry" />
        </mxCell>
        <mxCell id="tati8yqmTBazvfmJbsHK-17" value="movement" style="text;html=1;align=center;verticalAlign=middle;resizable=0;points=[];autosize=1;strokeColor=none;fillColor=none;" vertex="1" parent="1">
          <mxGeometry x="465" y="430" width="80" height="30" as="geometry" />
        </mxCell>
        <mxCell id="tati8yqmTBazvfmJbsHK-19" value="" style="endArrow=classic;html=1;rounded=0;entryX=0;entryY=0.5;entryDx=0;entryDy=0;" edge="1" parent="1">
          <mxGeometry width="50" height="50" relative="1" as="geometry">
            <mxPoint x="455" y="460" as="sourcePoint" />
            <mxPoint x="555" y="460" as="targetPoint" />
          </mxGeometry>
        </mxCell>
      </root>
    </mxGraphModel>
  </diagram>
</mxfile>
